<svg width="25" height="25" viewBox="0 0 25 25" fill="none" xmlns="http://www.w3.org/2000/svg">
<path d="M24.7417 12.7223C24.7417 19.4101 19.3201 24.8316 12.6323 24.8316C5.94447 24.8316 0.522932 19.4101 0.522932 12.7223C0.522932 6.03443 5.94447 0.6129 12.6323 0.6129C19.3201 0.6129 24.7417 6.03443 24.7417 12.7223ZM11.2316 19.1341L20.216 10.1497C20.5211 9.84464 20.5211 9.34996 20.216 9.04488L19.1112 7.94005C18.8061 7.63492 18.3114 7.63492 18.0063 7.94005L10.6792 15.2671L7.25833 11.8462C6.95325 11.5412 6.45858 11.5412 6.15345 11.8462L5.04862 12.9511C4.74354 13.2562 4.74354 13.7508 5.04862 14.0559L10.1267 19.134C10.4319 19.4392 10.9265 19.4392 11.2316 19.1341V19.1341Z" fill="black"/>
</svg>
