<svg width="95" height="95" viewBox="0 0 95 95" fill="none" xmlns="http://www.w3.org/2000/svg">
<path d="M10 75L12.2451 81.9098H19.5106L13.6327 86.1803L15.8779 93.0902L10 88.8197L4.12215 93.0902L6.36729 86.1803L0.489435 81.9098H7.75486L10 75Z" fill="#072641" fill-opacity="0.2"/>
<path d="M35 75L37.2451 81.9098H44.5106L38.6327 86.1803L40.8779 93.0902L35 88.8197L29.1221 93.0902L31.3673 86.1803L25.4894 81.9098H32.7549L35 75Z" fill="#072641" fill-opacity="0.2"/>
<path d="M60 75L62.2451 81.9098H69.5106L63.6327 86.1803L65.8779 93.0902L60 88.8197L54.1221 93.0902L56.3673 86.1803L50.4894 81.9098H57.7549L60 75Z" fill="#072641" fill-opacity="0.2"/>
<path d="M85 75L87.2451 81.9098H94.5106L88.6327 86.1803L90.8779 93.0902L85 88.8197L79.1221 93.0902L81.3673 86.1803L75.4894 81.9098H82.7549L85 75Z" fill="#072641" fill-opacity="0.2"/>
<path d="M10 50L12.2451 56.9098H19.5106L13.6327 61.1803L15.8779 68.0902L10 63.8197L4.12215 68.0902L6.36729 61.1803L0.489435 56.9098H7.75486L10 50Z" fill="#072641" fill-opacity="0.2"/>
<path d="M35 50L37.2451 56.9098H44.5106L38.6327 61.1803L40.8779 68.0902L35 63.8197L29.1221 68.0902L31.3673 61.1803L25.4894 56.9098H32.7549L35 50Z" fill="#072641" fill-opacity="0.2"/>
<path d="M60 50L62.2451 56.9098H69.5106L63.6327 61.1803L65.8779 68.0902L60 63.8197L54.1221 68.0902L56.3673 61.1803L50.4894 56.9098H57.7549L60 50Z" fill="#072641" fill-opacity="0.2"/>
<path d="M85 50L87.2451 56.9098H94.5106L88.6327 61.1803L90.8779 68.0902L85 63.8197L79.1221 68.0902L81.3673 61.1803L75.4894 56.9098H82.7549L85 50Z" fill="#072641" fill-opacity="0.2"/>
<path d="M10 0L12.2451 6.90983H19.5106L13.6327 11.1803L15.8779 18.0902L10 13.8197L4.12215 18.0902L6.36729 11.1803L0.489435 6.90983H7.75486L10 0Z" fill="#072641" fill-opacity="0.2"/>
<path d="M35 0L37.2451 6.90983H44.5106L38.6327 11.1803L40.8779 18.0902L35 13.8197L29.1221 18.0902L31.3673 11.1803L25.4894 6.90983H32.7549L35 0Z" fill="#072641" fill-opacity="0.2"/>
<path d="M60 0L62.2451 6.90983H69.5106L63.6327 11.1803L65.8779 18.0902L60 13.8197L54.1221 18.0902L56.3673 11.1803L50.4894 6.90983H57.7549L60 0Z" fill="#072641" fill-opacity="0.2"/>
<path d="M85 0L87.2451 6.90983H94.5106L88.6327 11.1803L90.8779 18.0902L85 13.8197L79.1221 18.0902L81.3673 11.1803L75.4894 6.90983H82.7549L85 0Z" fill="#072641" fill-opacity="0.2"/>
<path d="M10 25L12.2451 31.9098H19.5106L13.6327 36.1803L15.8779 43.0902L10 38.8197L4.12215 43.0902L6.36729 36.1803L0.489435 31.9098H7.75486L10 25Z" fill="#072641" fill-opacity="0.2"/>
<path d="M35 25L37.2451 31.9098H44.5106L38.6327 36.1803L40.8779 43.0902L35 38.8197L29.1221 43.0902L31.3673 36.1803L25.4894 31.9098H32.7549L35 25Z" fill="#072641" fill-opacity="0.2"/>
<path d="M60 25L62.2451 31.9098H69.5106L63.6327 36.1803L65.8779 43.0902L60 38.8197L54.1221 43.0902L56.3673 36.1803L50.4894 31.9098H57.7549L60 25Z" fill="#072641" fill-opacity="0.2"/>
<path d="M85 25L87.2451 31.9098H94.5106L88.6327 36.1803L90.8779 43.0902L85 38.8197L79.1221 43.0902L81.3673 36.1803L75.4894 31.9098H82.7549L85 25Z" fill="#072641" fill-opacity="0.2"/>
</svg>
